<svg height="512" viewBox="0 0 512 512" width="512" xmlns="http://www.w3.org/2000/svg"><g id="filled_outline" data-name="filled outline"><path d="m48 208v40l-15 32 23 16 16-40v-48z" fill="#fdc9a6"/><path d="m128 136 7.086 1.771a62 62 0 0 1 38.127 28.25l10.787 17.979-32 16v56h-80v-48h-32v-14.024a62 62 0 0 1 38.974-57.566l1.026-.41z" fill="#e82f3e"/><path d="m328 184-32 40-32 16 8 24h16l40-30z" fill="#fdc9a6"/><path d="m344 128 28.959 4.827a52 52 0 0 1 31.4 18l27.641 33.173-24 24-16-16v48h-64v-64l-3.025-6.05a18 18 0 0 1 1.7-18.85z" fill="#0296e5"/><g fill="#fdc9a6"><path d="m296 108.844v22.312a24 24 0 0 0 10.687 19.969 24 24 0 0 0 26.626 0 24 24 0 0 0 10.687-19.969v-22.312a24 24 0 0 0 -10.687-19.969 24 24 0 0 0 -26.626 0 24 24 0 0 0 -10.687 19.969z"/><path d="m80 97.689v22.311a24 24 0 0 0 10.687 19.969 24 24 0 0 0 26.626 0 24 24 0 0 0 10.687-19.969v-22.311a24 24 0 0 0 -10.687-19.969 24 24 0 0 0 -26.626 0 24 24 0 0 0 -10.687 19.969z"/><path d="m408 208 24 40v16l16 8 16-16-32-72z"/></g><path d="m328 240-16 88h48v-24l8 24h40v-49.373a54.626 54.626 0 0 0 -16-38.627z" fill="#026ca2"/><path d="m320 328-7.391 36.954a10.007 10.007 0 0 0 .614 5.9l22.777 53.146h32l-24-56 13-40z" fill="#fdc9a6"/><path d="m448 376h-63.529a10 10 0 0 1 -9.864-8.356l-6.607-39.644h39l1 16h40z" fill="#fdc9a6"/><path d="m72 256-32 64 8 2.667 40 13.333 16-32 16.573 41.433 47.427-9.433-16-80z" fill="#0bafea"/><path d="m120 416-24 40h-24v-40l24-24z" fill="#cbcbcb"/><path d="m88 336-16 24 24 32-24 24-36.729-51.421a10 10 0 0 1 -1.054-9.751l13.783-32.161z" fill="#fdc9a6"/><path d="m200 408-32-72-40 8 48 72z" fill="#fdc9a6"/><path d="m176 416v40h40l-16-48z" fill="#cbcbcb"/><path d="m184 184 16 24 16 56-24 16-16-16 8-16-8-24-24-24z" fill="#fdc9a6"/><path d="m336 424-24 16v16h56v-32z" fill="#cbcbcb"/><path d="m448 376 16 24 24-1.926v-54.074h-40z" fill="#cbcbcb"/><path d="m344 108.844h-48l-9.978-27.967a20.229 20.229 0 0 1 10.006-24.891 20.229 20.229 0 0 1 25.878 6.873l6.094 9.141h11.13a17.857 17.857 0 0 1 16.94 12.209 17.857 17.857 0 0 1 -5.762 19.571z" fill="#683b0d"/><path d="m128 97.689h-48v-.218a23.782 23.782 0 0 1 23.782-23.782h.437a23.783 23.783 0 0 1 23.781 24z" fill="#683b0d"/><circle cx="239" cy="408" fill="#fbb540" r="48"/><path d="m287 408a48.223 48.223 0 0 0 -.67-8.02l-33.25-.04 17.07-28.45a47.637 47.637 0 0 0 -13.73-8.23l-17.46 29.12-17.46-29.09a47.593 47.593 0 0 0 -13.71 8.25l17.02 28.36-33.12-.04a48.47 48.47 0 0 0 -.05 16l33.2.05-17.11 28.5a47.6 47.6 0 0 0 13.7 8.27l17.53-29.2 17.54 29.23a47.593 47.593 0 0 0 13.71-8.25l-17.11-28.52 33.24.05a48.948 48.948 0 0 0 .66-7.99z" fill="#d18d28"/><path d="m250.314 388.404h-22.628l-11.313 19.596 11.313 19.596h22.628l11.313-19.596z" fill="#d18d28"/><path d="m488 336h-72v-57.373a62.172 62.172 0 0 0 -16-41.8v-25.51l1.646 1.647 22.354 37.252v13.784a8 8 0 0 0 4.422 7.155l16 8a8 8 0 0 0 9.235-1.5l16-16a8 8 0 0 0 1.654-8.906s-32.019-72.034-32.029-72.055c-.29-.64-28.779-34.988-28.779-34.988a60.026 60.026 0 0 0 -36.229-20.773l-22.274-3.71v-8.542l3.316-2.661a25.857 25.857 0 0 0 -16.186-46.02h-6.849l-3.719-5.579a28.229 28.229 0 0 0 -50.076 25.144l9.64 27.018c-.077.447-.126 20.572-.126 20.572a32.02 32.02 0 0 0 27.087 31.627 25.971 25.971 0 0 0 2.732 10.746l2.181 4.361v3.3l-29.149 36.438-30.429 15.214a8 8 0 0 0 -4.012 9.685l8 24a8 8 0 0 0 7.59 5.474h16a8 8 0 0 0 4.588-1.446l24.894-17.426-13.353 73.441a8 8 0 0 0 6.15 9.243l-5.513 27.571a17.917 17.917 0 0 0 1.1 10.623l20.155 47.029-18.463 12.309a8 8 0 0 0 -3.558 6.656v16a8 8 0 0 0 8 8h56a8 8 0 0 0 8-8s-.007-32.1-.008-32.151c0-.107-23.454-56.237-23.454-56.237l9.223-28.379 4.955 29.726a17.945 17.945 0 0 0 17.756 15.041h59.247l13.625 20.438a8 8 0 0 0 6.656 3.562c.213 0 .427-.009.641-.025l24-1.926a8 8 0 0 0 7.36-7.975v-54.074a8 8 0 0 0 -8.001-8zm-114.234-16-6.176-18.53a8 8 0 0 0 -15.59 2.53v16h-30.414l13.091-72h53.857a46.286 46.286 0 0 1 11.466 30.627v41.373zm72.654-57.734-6.42-3.21v-11.056a8.009 8.009 0 0 0 -1.14-4.116l-20.786-34.644 11.346-11.346 25.038 56.335zm-48.208-106.316 22.965 27.559-13.177 13.178-10.343-10.344a8 8 0 0 0 -13.657 5.657v40h-48v-56a7.994 7.994 0 0 0 -.845-3.578l-3.025-6.05a9.963 9.963 0 0 1 -1.027-5.206 31.983 31.983 0 0 0 20.29-23.823l20.251 3.374a44.025 44.025 0 0 1 26.568 15.233zm-98.607-92.808a12.249 12.249 0 0 1 15.644 4.158l6.095 9.142a8 8 0 0 0 6.656 3.558h11.13a9.857 9.857 0 0 1 6.17 17.542l-4.114 3.3h-39.546l-8.083-22.657a12.238 12.238 0 0 1 6.048-15.043zm4.395 68.013v-14.31h32v14.31a16 16 0 0 1 -12.75 15.668c-.083.014-.166.029-.248.045a15.994 15.994 0 0 1 -19-15.713zm-18.521 124.845h-7.713l-3.983-11.947 25.795-12.9a8.012 8.012 0 0 0 2.669-2.153l17.753-22.193v25.028zm34.521 192v-3.719l18.422-12.281h21.578v16zm35.868-32h-14.593l-20.7-48.3a1.99 1.99 0 0 1 -.123-1.18l6.107-30.52h19.429l-9.6 29.527a8 8 0 0 0 .254 5.624zm26.632-49.672-5.056-30.328h22.556v8a8 8 0 0 0 8 8h32v16h-55.528a1.994 1.994 0 0 1 -1.972-1.672zm97.5 24.362-11.952.959-12.048-18.071v-21.578h24z"/><path d="m239 352a55.948 55.948 0 0 0 -45.024 22.746l-18.305-41.184-15.671-78.355v-35.893l9.008 9.007 6.354 19.065-6.517 13.036a8 8 0 0 0 1.5 9.235l16 16a8 8 0 0 0 10.095 1l24-16a8 8 0 0 0 3.254-8.854l-16-56a8.008 8.008 0 0 0 -1.036-2.24l-15.886-23.83-10.7-17.827a69.541 69.541 0 0 0 -43.047-31.894l-2.44-.61a32.066 32.066 0 0 0 1.415-9.402v-22.312a32 32 0 0 0 -64 0v22.312a32.028 32.028 0 0 0 1.6 10 69.644 69.644 0 0 0 -41.6 63.976v14.024a8 8 0 0 0 8 8v30.218l-14.244 30.382a8 8 0 0 0 1.93 9.375l14.114 12.546-8.95 17.9a7.985 7.985 0 0 0 4.382 11.072l-10.369 24.184a18.106 18.106 0 0 0 1.9 17.552l35.237 49.335v37.436a8 8 0 0 0 8 8h24a8 8 0 0 0 6.86-3.884l24-40a8 8 0 0 0 -1.2-9.773l-23.6-23.6-20.26-27.014 21.392-36.217 9.958 24.891a8 8 0 0 0 7.423 5.031c.518 0 3.717-.583 3.717-.583l43.71 65.571v37.578a8 8 0 0 0 8 8h63a56 56 0 0 0 0-112zm27.012 85.471-6.2-10.33 6.672-11.558 11.816-.183a39.979 39.979 0 0 1 -12.288 22.071zm-52.876-19.077 5.05 8.747-6.2 10.33a40.044 40.044 0 0 1 -11.555-18.885zm32.558-21.99 6.7 11.6-6.7 11.6h-13.388l-6.7-11.6 6.7-11.6zm-6.694 51.596a39.805 39.805 0 0 1 -13.3-2.283l6.073-10.121h14.456l6.073 10.121a39.805 39.805 0 0 1 -13.302 2.283zm27.008-48.411-6.194-10.73 6.2-10.33a40 40 0 0 1 12.048 20.877zm-13.708-29.306-6.072 10.117h-14.456l-6.072-10.117a39.888 39.888 0 0 1 26.6 0zm-40.313 8.246 6.2 10.33-7.837 13.576-10.974.166a39.94 39.94 0 0 1 12.612-24.072zm-5.287-117.946-13.683 9.123-7.286-7.286 5.421-10.842a8 8 0 0 0 .435-6.108l-8-24a8.025 8.025 0 0 0 -1.933-3.127l-16.151-16.152 15.755-7.877 11.39 17.084zm-118.7-140.583v-14.312h32v14.312a16 16 0 0 1 -32 0zm7.125-35.624a15.992 15.992 0 0 1 22.727 5.312h-27.7a15.984 15.984 0 0 1 4.973-5.312zm-47.125 109.6a53.742 53.742 0 0 1 33.942-50.137l.506-.2a31.894 31.894 0 0 0 43.129-.023c.16.051.318.1.483.147l7.086 1.771a53.646 53.646 0 0 1 33.207 24.606l6.342 10.57-24.273 12.137a8 8 0 0 0 -4.422 7.153v48h-64v-64a8 8 0 0 0 -16 0v16h-16zm-5.222 84.012 12.466-26.588a8 8 0 0 0 .756-3.4v-32h8v38.111l-14.8 29.59zm48.693 170.012h-11.471v-28.687l16-16 13.927 13.927zm-6.034-56.751-12.416 12.416-31.241-43.735a2.016 2.016 0 0 1 -.21-1.951l10.884-25.395 23.08 7.694-10.19 15.284a8 8 0 0 0 .256 9.238zm25.991-90.22a8 8 0 0 0 -7.1-5.022c-.111 0-.223-.007-.334-.007a8 8 0 0 0 -7.153 4.422l-12.9 25.795-32.661-10.89 25.664-51.327h68.5l13.144 65.716-33.053 6.574zm29.836 48.446 22.023-4.381 20.494 46.11a7.973 7.973 0 0 0 1.232 1.948 55.84 55.84 0 0 0 -2.013 14.848c0 1.524.078 3.029.2 4.522a7.973 7.973 0 0 0 -.542-.96zm42.736 98.525v-29.508a55.932 55.932 0 0 0 15.861 29.508z"/></g></svg>