<svg id="Capa_1" enable-background="new 0 0 497 497" height="512" viewBox="0 0 497 497" width="512" xmlns="http://www.w3.org/2000/svg"><g><g><path d="m374.71 58.86v368.01l-148.855 10-148.855-10v-368.01l152.857-10z" fill="#f9f8f8"/><path d="m77 58.86h20v368.01h-20z" fill="#ede8e5"/></g><g><path d="m374.71 426.87v30.14c0 22.09-17.9 39.99-40 39.99h-222.96c-2.73-.1-14.38-.81-24-10.25-10.61-10.42-10.76-23.61-10.75-25.99v-33.89z" fill="#5f6c75"/><path d="m131.75 497h-20c-2.73-.1-14.38-.81-24-10.25-10.61-10.42-10.76-23.61-10.75-25.99v-33.89h20v33.89c-.01 2.38.14 15.57 10.75 25.99 9.62 9.44 21.27 10.15 24 10.25z" fill="#4e5a61"/></g><path d="m349.964 220.291c1.478-2.447 1.341-5.709-.29-8.048l-20-29c-2.352-3.41-7.022-4.268-10.432-1.916s-4.268 7.021-1.917 10.432l11.892 17.241h-38.717c-4.142 0-7.5 3.357-7.5 7.5s3.358 7.5 7.5 7.5h38.717l-11.891 17.242c-2.352 3.41-1.494 8.08 1.917 10.432 1.3.896 2.783 1.327 4.251 1.327 2.383 0 4.726-1.133 6.181-3.243l20-29c.1-.153.198-.308.289-.467z" fill="#39ac2f"/><path d="m168.5 209h-38.717l11.891-17.242c2.352-3.41 1.494-8.08-1.917-10.432-3.41-2.353-8.081-1.495-10.432 1.916l-20 29c-1.751 2.498-1.751 6.018 0 8.516l20 29c1.456 2.11 3.798 3.243 6.181 3.243 1.468 0 2.951-.431 4.251-1.327 3.41-2.352 4.268-7.021 1.917-10.432l-11.891-17.242h38.717c4.142 0 7.5-3.357 7.5-7.5s-3.358-7.5-7.5-7.5z" fill="#e74c3c"/><path d="m420 376.978c0-15.26-12.417-27.63-27.736-27.63-11.267 0-20.958 6.697-25.299 16.309v-1.962-11.595c0-15.26-12.417-27.631-27.736-27.631s-27.736 12.37-27.736 27.631c-.01-7.392-.02-14.784-.03-22.177 0-15.26-12.417-27.63-27.735-27.63-12.797 0-23.564 8.636-26.763 20.376v-98.415c0-15.26-12.417-27.631-27.735-27.631-15.319 0-27.736 12.37-27.736 27.631v200.554l-39.871-39.72c-10.832-10.791-28.393-10.791-39.225 0-10.831 10.791-10.831 28.285 0 39.076 18.903 20.061 37.807 40.123 56.71 60.184 2.2 2.335 8.383 8.533 18.191 11.4 2.646.773 4.876 1.1 6.237 1.253 62.909-.008 125.819-.015 188.728-.022 15.318 0 27.736-12.37 27.736-27.631-.039-1.122-.04-2.211 0-3.334z" fill="#f0c585"/><g fill="#ebaa61"><path d="m225.54 196.87c-2.57 4.19-4.05 9.11-4.05 14.38v221.273c0 4.45-5.376 6.683-8.528 3.543l-11.472-11.426v-200.39c0-14.01 10.47-25.59 24.05-27.38z"/><path d="m228.52 497h-24.98c-1.36-.15-3.59-.48-6.24-1.25-9.81-2.87-15.99-9.07-18.19-11.4-18.9-20.06-37.81-40.13-56.71-60.19-10.49-10.46-10.82-27.2-.97-38.05.31 6.64 3 13.18 8.09 18.25 18.9 20.06 55.69 59.93 74.59 79.99 2.2 2.33 8.38 8.53 18.19 11.4 2.64.77 4.86 1.1 6.22 1.25z"/><path d="m280.88 302.44c-2.49 4.17-3.91 9.04-3.91 14.18v54.57c0 5.523-4.477 10-10 10-5.523 0-10-4.477-10-10v-47.788c0-.486.062-.973.202-1.438 3.16-10.508 12.429-18.38 23.708-19.524z"/><path d="m338.45 324.49c-3.86 5.2-6.37 11.85-6.86 19.18v27.52c0 5.523-4.477 10-10 10-5.523 0-10-4.477-10-10v-21.098c0-.174.007-.349.022-.523 1.253-13.826 12.737-24.701 26.838-25.079z"/><path d="m391.11 349.38c-2.75 5.02-4.14 10.75-4.14 16.55v5.26c0 5.523-4.477 10-10 10-5.523 0-10-4.477-10-10v-4.39c0-.75.15-1.5.49-2.17 4.39-8.74 13.29-14.83 23.65-15.25z"/></g><path d="m374.71 36.81v22.05h-297.71v-22.07c.01-2.72.35-14.98 10.04-25.25 10.54-11.16 24.17-11.52 26.57-11.54h224.59c2.49.02 15.38.37 25.79 10.81 10.49 10.53 10.73 23.54 10.72 26z" fill="#5f6c75"/><path d="m133.61 0c-2.4.02-16.03.38-26.57 11.54-9.69 10.27-10.03 22.53-10.04 25.25v22.07h-20v-22.07c.01-2.72.35-14.98 10.04-25.25 10.54-11.16 24.17-11.52 26.57-11.54z" fill="#4e5a61"/><g><path d="m255.305 36.991h-50.896c-4.142 0-7.5-3.357-7.5-7.5s3.358-7.5 7.5-7.5h50.896c4.142 0 7.5 3.357 7.5 7.5s-3.358 7.5-7.5 7.5z" fill="#4e5a61"/></g><circle cx="295.297" cy="29.49" fill="#4e5a61" r="7.5"/></g></svg>